<?xml version="1.0" standalone="no"?>
<!DOCTYPE svg PUBLIC "-//W3C//DTD SVG 20010904//EN"
 "http://www.w3.org/TR/2001/REC-SVG-20010904/DTD/svg10.dtd">
<svg version="1.0" xmlns="http://www.w3.org/2000/svg"
 width="418.000000pt" height="418.000000pt" viewBox="0 0 418.000000 418.000000"
 preserveAspectRatio="xMidYMid meet">
<metadata>
Created by potrace 1.11, written by Peter Selinger 2001-2013
</metadata>
<g transform="translate(0.000000,418.000000) scale(0.100000,-0.100000)"
fill="#000000" stroke="none">
<path d="M1858 4175 c-2 -2 -46 -6 -98 -9 -52 -4 -138 -13 -190 -21 -52 -9
-126 -20 -165 -26 -38 -6 -77 -13 -85 -16 -8 -3 -24 -7 -36 -8 -11 -1 -25 -5
-31 -8 -5 -3 -23 -9 -40 -11 -24 -5 -148 -37 -233 -61 -26 -7 -84 -28 -105
-37 -12 -5 -27 -10 -35 -12 -32 -5 -110 -35 -152 -57 -10 -5 -27 -9 -38 -9
-11 0 -20 -4 -20 -10 0 -5 -6 -10 -13 -10 -7 0 -30 -9 -52 -20 -22 -11 -45
-20 -52 -20 -7 0 -13 -4 -13 -10 0 -5 -5 -10 -10 -10 -6 0 -46 -16 -88 -36
-73 -34 -152 -95 -152 -119 0 -5 -6 -21 -13 -35 -24 -46 -8 -134 31 -175 58
-61 80 -72 150 -74 12 -1 25 -9 29 -18 3 -10 30 -68 59 -130 30 -62 54 -117
54 -122 0 -6 5 -11 10 -11 6 0 10 -5 10 -12 0 -11 96 -213 156 -329 13 -26 24
-54 24 -63 0 -9 5 -16 10 -16 6 0 9 -3 8 -7 0 -5 16 -44 37 -88 31 -64 38 -89
35 -125 -12 -160 2 -252 54 -358 15 -30 32 -60 39 -68 32 -39 79 -84 87 -84 6
0 15 -9 22 -20 7 -11 17 -20 21 -20 5 0 21 -9 37 -20 15 -11 30 -17 33 -13 4
3 12 -6 18 -21 7 -14 16 -26 21 -26 5 0 6 -5 2 -11 -3 -6 -1 -14 5 -18 6 -4
13 -17 16 -29 2 -12 11 -29 19 -38 9 -8 16 -20 16 -25 0 -6 23 -58 51 -117 29
-59 69 -143 90 -187 54 -115 78 -165 99 -205 10 -19 38 -78 63 -130 24 -52 61
-129 81 -171 20 -41 36 -81 36 -87 0 -7 5 -12 11 -12 5 0 7 -5 4 -10 -3 -6 -1
-10 4 -10 6 0 11 -6 11 -14 0 -7 29 -71 64 -142 35 -71 74 -154 87 -184 13
-30 28 -58 33 -62 6 -4 8 -8 4 -8 -4 0 19 -53 52 -117 32 -65 67 -138 78 -163
11 -25 30 -55 42 -67 21 -23 70 -32 70 -12 0 5 3 8 8 5 4 -2 15 12 24 32 9 21
35 77 59 127 24 50 43 92 44 95 0 3 20 44 43 92 23 48 43 91 43 95 0 5 7 15
15 25 9 9 17 22 18 30 6 26 38 93 54 111 8 9 12 17 8 17 -4 0 2 16 14 35 12
19 18 35 13 35 -4 0 -2 4 5 9 7 4 14 14 15 22 2 8 27 64 57 125 42 85 63 116
90 133 33 22 110 119 110 140 0 5 5 22 12 38 15 38 17 47 22 125 3 37 12 80
20 95 38 70 106 215 106 227 0 8 7 19 15 26 8 7 15 21 15 31 0 11 5 19 10 19
6 0 10 4 10 9 0 15 91 211 128 276 13 22 44 94 47 110 1 6 16 34 34 62 17 29
29 53 26 53 -2 0 10 26 26 58 17 31 32 65 34 74 2 9 15 34 29 55 14 21 26 45
26 55 0 9 4 19 9 23 5 3 12 19 16 35 4 17 10 30 13 30 6 0 39 64 47 90 6 19
35 77 42 83 4 5 8 12 9 15 0 4 15 38 32 75 18 38 32 73 32 78 0 5 5 9 12 9 6
0 9 3 6 6 -3 3 8 33 26 67 17 34 38 79 46 100 7 20 17 37 22 37 4 0 8 6 8 13
0 7 20 53 45 101 25 49 45 95 45 101 0 7 7 18 15 25 8 7 13 16 10 20 -8 13 14
23 64 27 60 5 103 39 136 106 22 45 25 62 19 102 -3 27 -12 55 -20 62 -8 8
-14 19 -14 25 0 25 -114 100 -147 97 -3 0 -9 3 -12 8 -6 10 -113 63 -126 63
-4 0 -36 14 -72 31 -36 17 -70 32 -77 33 -6 1 -17 5 -24 9 -7 5 -24 11 -39 13
-15 3 -32 9 -38 13 -10 8 -180 68 -220 77 -26 7 -37 10 -55 17 -19 7 -72 21
-85 22 -5 0 -16 4 -23 9 -7 4 -16 6 -18 3 -3 -3 -37 4 -76 14 -39 10 -74 17
-77 17 -3 -1 -25 4 -48 10 -23 7 -45 12 -50 11 -7 -2 -73 7 -133 17 -14 3 -45
7 -70 10 -25 2 -61 7 -80 11 -36 6 -586 14 -592 8z"/>
</g>
</svg>
